<!DOCTYPE svg PUBLIC "-//W3C//DTD SVG 1.1//EN" "http://www.w3.org/Graphics/SVG/1.1/DTD/svg11.dtd">
<!-- Uploaded to: SVG Repo, www.svgrepo.com, Transformed by: SVG Repo Mixer Tools -->
<svg fill="#9c9c9c" version="1.1" id="Layer_1" xmlns="http://www.w3.org/2000/svg" xmlns:xlink="http://www.w3.org/1999/xlink" width="800px" height="800px" viewBox="796 796 200 200" enable-background="new 796 796 200 200" xml:space="preserve" stroke="#9c9c9c">
<g id="SVGRepo_bgCarrier" stroke-width="0"/>
<g id="SVGRepo_tracerCarrier" stroke-linecap="round" stroke-linejoin="round"/>
<g id="SVGRepo_iconCarrier"> <path d="M976.89,858.813l-59.32-59.319c-2.237-2.237-5.271-3.493-8.434-3.493h-85.59c-6.588,0-11.928,5.34-11.928,11.927v176.146 c0,6.587,5.34,11.927,11.928,11.927h144.91c6.586,0,11.926-5.34,11.926-11.927V867.246 C980.382,864.083,979.125,861.049,976.89,858.813z M935.5,964.083h-79c-3.313,0-6-2.686-6-5.999c0-3.314,2.687-6,6-6h79 c3.313,0,6,2.686,6,6C941.5,961.397,938.813,964.083,935.5,964.083z M935.5,934.25h-79c-3.313,0-6-2.687-6-6s2.687-6,6-6h79 c3.313,0,6,2.687,6,6S938.813,934.25,935.5,934.25z M935.5,904.417h-79c-3.313,0-6-2.687-6-6c0-3.314,2.687-6,6-6h79 c3.313,0,6,2.686,6,6C941.5,901.73,938.813,904.417,935.5,904.417z M921.063,867.249c-6.587,0-11.927-5.339-11.927-11.926v-45.188 l57.113,57.115L921.063,867.249L921.063,867.249z"/> </g>
</svg>